<svg version="1.1" id="hydra_logo_blue" xmlns="http://www.w3.org/2000/svg" xmlns:xlink="http://www.w3.org/1999/xlink" x="0px" y="0px"
     viewBox="0 0 1024 1024" style="enable-background:new 0 0 1024 1024;" xml:space="preserve">
<style type="text/css">
    .st0{fill:#004050;}
    .st1{fill:#000000;}
</style>
<g>
    <path class="st0" d="M720,296.8c-12,2-16,10-16,16v23.2h-32c0,0-17.6-1.6-26.4,0s-11.2,4.8-11.2,4.8l-156-96l-3.2,5.2L630.8,348
        c0,0,14.4,4,20.8,1.6s6.4-1.6,6.4-1.6h38v10h24c0,0,13.6-0.8,20.8,0.8s12.8,12,12.8,12s6.4,12,6.4,22.4v13.6L720,296.8z
         M724.8,370.4c-12,0-12-10-12-10h12V370.4z"/>
    <path class="st0" d="M266.8,382c4.8,0.8,11.2,1.6,11.2,1.6s8-4,13.6,1.6s15.2,16,15.2,16l84.8,55.2l3.2-5.2l-80.4-52
        c-8.8-13.6-23.2-12.8-23.2-12.8H252v-24l-40-10l-12,108l40-10v-30.8C240,380,262,381.2,266.8,382z"/>
    <path class="st0" d="M432,668.8v-17.6c-1.6-12-10-16-16-16s-16,16-16,16v17.6H384c-12,0-16,10-16,16v32c0,0,1.6,17.6,0,26.4
        s-4.8,11.2-4.8,11.2L276.8,891.2c0,0-4,14.4-1.6,20.8s1.6,6.4,1.6,6.4H280c0,0,0.8,13.6-0.8,20.8S267.2,952,267.2,952
        s-12,6.4-22.4,6.4H231.2l132,40l-23.2-10h38c12,0,16-10,16-16V952c0,0-0.8-13.6,0.8-20.8S394,912,394,912l102.8-161.2L432,668.8z
         M288.4,916.8c0-12,10-12,10-12h10V916.8H288.4z"/>
    <path class="st0" d="M720,683.2h30.8V672l10,40l-108,12v-40h30.8c21.6,0,22.8-22,22.8-22v-8h10c0,0-13.6-0.8-20.8-0.8s-12-12-12-12s-6.4-12-6.4-22.4
        v-13.6H668v-10h-24c-12-2-16-10-16-16v-23.2c0-12,10-16,10-16l81.2-126.8l3.2,5.2l-77.2,120.4l82.8-54c0,0,4-14.4,1.6-20.8
        s-1.6-6.4-1.6-6.4l-38,3.2c0,0-0.8,13.6,0.8,20.8S732,544,732,544v58.4C732,602.4,710.4,601.2,705.6,600.4s-11.2-1.6-11.2-1.6
        s-8,4-13.6-1.6S665.6,581.2,665.6,581.2l-71.2-46.4l-3.2,5.2l68,44.4C668,598,682.4,597.2,682.4,597.2L720,683.2z"/>
    <path class="st0" d="M512,192c-12,0-16,10-16,16v32c0,0-1.6,17.6,0,26.4s-4.8,11.2-4.8,11.2L428,318.4l-3.2-5.2L498.4,204c0,0,4-14.4,1.6-20.8
        s-1.6-6.4-1.6-6.4h-38v-10H438l10-40l108,12l-10,40h-34v10c0,0,13.6-0.8,20.8,0.8S545.6,202,545.6,202s6.4,12,6.4,22.4v13.6
        L512,192z"/>
    <path class="st0" d="M468,460v12c0,11,9,20,20,20c0,0,0,0,0.1,0v20c-11,0-20,9-20,20c0,0,0,0,0,0.1H448v24h10c12,0,16-10,16-16v-23.2
        c0-12-10-16-10-16c0,0,17.6,1.6,26.4,0s11.2-4.8,11.2-4.8l20.4-31.6l-3.2-5.2L500,436.4C500,436.4,485.6,432.4,479.2,434.8
        S472.8,436.4,472.8,436.4H438l10-40l108,12l-10,40h-34V460H468z"/>
    <path class="st0" d="M552,432.4c6.4-2.4,12.8-1.6,12.8-1.6s6.4,12,6.4,22.4v13.6H512v20c12,0,16-10,16-16v-23.2h32c0,0,17.6,1.6,26.4,0
        s11.2,4.8,11.2,4.8L612.8,482l3.2-5.2l-18.8-29.2c-8.8-13.6-23.2-12.8-23.2-12.8H536v-24l-40-10l-12,108l40-10V434
        C524,432.8,545.6,434.8,552,432.4z"/>
    <path class="st0" d="M381.6,450l-3.2,5.2L428,487.2c0,0,14.4,4,20.8,1.6s6.4-1.6,6.4-1.6h38v10h24c0,0,13.6-0.8,20.8,0.8s12.8,12,12.8,12
        s6.4,12,6.4,22.4v13.6l-82.4-142.4L381.6,450z M449.6,509.6c-12,0-12-10-12-10h12V509.6z"/>
    <path class="st0" d="M492,572.8c-12,0-16,10-16,16v32c0,0-1.6,17.6,0,26.4s-4.8,11.2-4.8,11.2L413.6,711.6l3.2,5.2l53.2-82.8h28c12,0,16-10,16-16
        V602.4c0,0-0.8-13.6,0.8-20.8S527.2,562,527.2,562s-12,6.4-22.4,6.4H492L492,572.8z M468.4,636.8c0-12,10-12,10-12h10V636.8H468.4z"/>
</g>
<rect x="526" y="445.1" class="st1" width="10.8" height="2.9"/>
<rect x="528.2" y="442.2" class="st1" width="10.8" height="2.9"/>
</svg>